<svg width="1280" height="116" viewBox="0 0 1280 116" fill="none" xmlns="http://www.w3.org/2000/svg">
<path fill-rule="evenodd" clip-rule="evenodd" d="M-1 77.3333L41.9 64.4444C84.8 51.5556 170.6 25.7778 256.4 29C342.2 32.2222 428 64.4444 513.8 77.3333C599.6 90.2222 685.4 83.7778 771.2 74.1111C857 64.4444 942.8 51.5556 1028.6 38.6667C1114.4 25.7778 1200.2 12.8889 1243.1 6.44444L1286 0V116H1243.1C1200.2 116 1114.4 116 1028.6 116C942.8 116 857 116 771.2 116C685.4 116 599.6 116 513.8 116C428 116 342.2 116 256.4 116C170.6 116 84.8 116 41.9 116H-1V77.3333Z" fill="#0A4014"/>
</svg>
